<?xml version="1.0" encoding="utf-8"?>
<!-- Generator: Adobe Illustrator 24.0.2, SVG Export Plug-In . SVG Version: 6.00 Build 0)  -->
<svg version="1.1" id="Layer_1" xmlns="http://www.w3.org/2000/svg" xmlns:xlink="http://www.w3.org/1999/xlink" x="0px" y="0px"
	 viewBox="0 0 283.46 283.46" style="enable-background:new 0 0 283.46 283.46;" xml:space="preserve">
<style type="text/css">
	.st0{fill:url(#SVGID_1_);}
</style>
<g>
	
		<linearGradient id="SVGID_1_" gradientUnits="userSpaceOnUse" x1="141.73" y1="1.0246" x2="141.73" y2="282.4346" gradientTransform="matrix(1 0 0 -1 0 283.4646)">
		<stop  offset="0" style="stop-color:#1C93CA"/>
		<stop  offset="0.2012" style="stop-color:#1C8FC6"/>
		<stop  offset="0.3986" style="stop-color:#1C84BA"/>
		<stop  offset="0.5945" style="stop-color:#1D72A7"/>
		<stop  offset="0.7895" style="stop-color:#1E588B"/>
		<stop  offset="0.9823" style="stop-color:#1F3668"/>
		<stop  offset="1" style="stop-color:#1F3364"/>
	</linearGradient>
	<path class="st0" d="M141.73,1.03C63.46,1.03,0,64.02,0,141.73s63.46,140.71,141.73,140.71c78.28,0,141.73-63,141.73-140.71
		S220.01,1.03,141.73,1.03z M271.51,138.29c-13.28,3.38-27.25,3.21-40.48-0.55l-3.76-1.29c-1.19-19.25-8.81-36.77-20.78-50.46
		l3.29-1.32c12.11-6.67,22.15-16.46,29.17-28.28C258.53,78.31,270.67,106.89,271.51,138.29z M148.31,187.2
		c2.24-0.34,4.43-0.85,6.55-1.52c2.96,9.35,4.63,19.07,4.95,28.89l0.12,3.59c-4.88,1.07-9.9,1.61-15.01,1.56l0.68-2.9
		C147.87,207.11,148.79,197.14,148.31,187.2z M155.73,168.22c-3.74,0-6.77-3.02-6.77-6.74s3.03-6.74,6.77-6.74s6.76,3.02,6.76,6.74
		C162.5,165.21,159.47,168.22,155.73,168.22z M203.73,99.77c-8.75,2.47-17.03,6.37-24.49,11.56l-5.45,3.79
		c-1.18-1.28-2.43-2.48-3.75-3.61l4.19-4.96c5.85-6.92,12.82-12.82,20.62-17.46l3.24-1.93c3.52,3.53,6.7,7.38,9.48,11.52
		L203.73,99.77z M210.52,103.46c2.46,4.32,4.5,8.9,6.07,13.68l-4.3,0.06c-9.1,0.13-18.11,1.77-26.66,4.86l-5.5,1.99
		c-0.85-1.59-1.81-3.13-2.85-4.59l4.74-3.3c7.45-5.18,15.72-9.08,24.46-11.55L210.52,103.46z M190.93,85.13
		c-7.81,4.64-14.79,10.55-20.65,17.48l-4.7,5.56c-1.41-0.92-2.87-1.76-4.38-2.51l2.99-6.37c3.85-8.19,9.05-15.69,15.38-22.18
		l2.35-2.41c4.29,2.5,8.32,5.4,12.04,8.63L190.93,85.13z M174.77,74.3c-6.34,6.49-11.55,14-15.4,22.2l-3.29,7
		c-1.55-0.54-3.13-0.99-4.75-1.35l1.3-7.28c1.59-8.91,4.66-17.49,9.09-25.39l1.5-2.68c4.78,1.33,9.38,3.09,13.75,5.25L174.77,74.3z
		 M165.87,180.41c5.38,8.35,9.59,17.42,12.48,26.93l1.03,3.38c-4.47,2.5-9.18,4.53-14.07,6.02l-0.11-3.59
		c-0.32-10.03-2.05-19.95-5.13-29.49C162.09,182.72,164.03,181.64,165.87,180.41z M170.3,177.03c0.1-0.08,0.19-0.16,0.29-0.25
		c9.24,6.2,17.19,14.1,23.51,23.23c-3.11,2.88-6.43,5.5-9.93,7.81l-0.98-3.24C180.22,194.83,175.88,185.56,170.3,177.03z
		 M178.22,167.94c1.15-1.76,2.18-3.62,3.06-5.55c9.32,4.65,17.92,10.59,25.53,17.7l1.92,1.79c-2.6,4.37-5.58,8.45-8.89,12.22
		l-1.51-2.43C192.82,182.83,186.04,174.84,178.22,167.94z M183.29,157.2c0.6-1.93,1.06-3.92,1.39-5.96
		c10.51,2.06,20.66,5.65,30.11,10.69l2.15,1.15c-1.43,4.84-3.28,9.5-5.52,13.92l-1.82-1.7C201.79,167.99,192.91,161.9,183.29,157.2z
		 M216.26,156.57c-9.73-5.19-20.21-8.85-31.06-10.88c0.01-0.43,0.03-0.87,0.03-1.31c0-1.49-0.08-2.96-0.22-4.41l3.98-0.34
		c9.05-0.78,18.17-0.04,26.98,2.17l4.26,1.07c-0.18,5.06-0.8,10.01-1.86,14.81L216.26,156.57z M216,136.25
		c-8.82-2.22-17.95-2.96-27.01-2.18l-4.91,0.42c-0.43-1.84-0.98-3.64-1.64-5.39l4.63-1.67c8.54-3.08,17.54-4.72,26.63-4.85
		l4.45-0.06c1.17,4.77,1.88,9.72,2.07,14.8L216,136.25z M146.07,13.04c34.06,1.11,64.81,15.2,87.35,37.48
		c-6.99,11.86-17.02,21.69-29.14,28.39l-3.09,1.54c-14.5-13.86-33.89-22.71-55.36-23.71C149.56,42.42,149.65,27.39,146.07,13.04z
		 M142.48,66.7l0.72-2.83c4.97,0.09,9.84,0.62,14.57,1.58L156.34,68c-4.44,7.91-7.51,16.5-9.1,25.42l-1.4,7.86
		c-1.35-0.13-2.72-0.2-4.1-0.2c-0.26,0-0.52,0.02-0.79,0.02l-0.65-7.53C139.52,84.55,140.25,75.47,142.48,66.7z M138.34,13.02
		c3.49,14.39,3.3,29.41-0.55,43.72c-21.62,0.97-41.14,9.9-55.7,23.9C74.6,67.8,63.99,57.08,51.24,49.4
		C73.87,27.57,104.49,13.88,138.34,13.02z M134.71,93.56l0.69,7.98c-1.63,0.24-3.23,0.56-4.79,0.97l-2.56-7.04
		c-3.1-8.51-4.74-17.47-4.87-26.51l-0.04-2.9c4.67-1.13,9.5-1.85,14.46-2.11l-0.69,2.72C134.67,75.44,133.93,84.53,134.71,93.56z
		 M125.33,104.27c-1.54,0.62-3.03,1.33-4.48,2.12l-4.14-5.9c-5.2-7.42-9.12-15.65-11.6-24.35l-0.82-2.89
		c4.25-2.29,8.75-4.19,13.44-5.69l0.04,2.8c0.13,9.06,1.78,18.03,4.88,26.54L125.33,104.27z M111.87,103.26l4.28,6.1
		c-1.37,0.99-2.68,2.06-3.92,3.21l-5.15-4.32c-6.95-5.82-12.88-12.77-17.53-20.53l-1.62-2.7c3.55-3.32,7.42-6.31,11.55-8.93
		l0.79,2.78C102.74,87.59,106.66,95.83,111.87,103.26z M103.11,112.18l5.26,4.41c-1.12,1.33-2.16,2.74-3.12,4.2l-5.48-2.56
		c-8.23-3.83-15.76-9.01-22.27-15.32l-2.44-2.36c2.61-4.14,5.59-8.02,8.91-11.6l1.59,2.66C90.22,99.4,96.15,106.35,103.11,112.18z
		 M96.98,123.05l5.54,2.58c-0.78,1.63-1.46,3.31-2.04,5.04l-5.14-0.91c-8.95-1.58-17.56-4.64-25.5-9.05l-3.21-1.79
		c1.46-4.72,3.36-9.25,5.65-13.54l2.41,2.33C81.2,114.03,88.74,119.22,96.98,123.05z M68.35,126.07c7.94,4.42,16.57,7.48,25.52,9.07
		l5.17,0.91c-0.37,1.89-0.62,3.82-0.73,5.79c-11.09,0.87-22.25,0.04-33.09-2.48l-1.96-0.46c0.18-5,0.84-9.88,1.92-14.59
		L68.35,126.07z M65.21,144.91c10.85,2.53,22.04,3.36,33.15,2.48c0.14,1.99,0.4,3.94,0.8,5.85c-10.21,3.5-20.89,5.48-31.69,5.82
		l-2.25,0.07c-1.11-4.72-1.78-9.62-1.96-14.68L65.21,144.91z M68.89,164.43c10.82-0.34,21.53-2.32,31.76-5.84
		c0.68,1.95,1.49,3.83,2.43,5.64c-8.75,5.77-18.3,10.27-28.36,13.3l-2.14,0.64c-2.4-4.31-4.39-8.88-5.91-13.68L68.89,164.43z
		 M77.49,182.34c10.1-3.04,19.68-7.55,28.46-13.35c1.21,1.75,2.55,3.4,4,4.94c-6.83,7.59-14.71,14.18-23.41,19.56l-1.66,1.03
		c-3.49-3.56-6.63-7.43-9.37-11.58L77.49,182.34z M90.46,197.43c8.76-5.41,16.67-12.05,23.54-19.69c1.68,1.39,3.47,2.65,5.34,3.77
		c-4.58,8.87-10.39,17.07-17.25,24.36l-1.21,1.29c-4.27-2.58-8.28-5.52-11.96-8.78L90.46,197.43z M106.9,208.66
		c6.93-7.35,12.77-15.64,17.38-24.61c2.02,0.88,4.12,1.62,6.29,2.19c-2.13,9.61-5.57,18.88-10.24,27.57l-0.92,1.71
		c-4.76-1.51-9.32-3.41-13.66-5.65L106.9,208.66z M125.78,142.91c-0.01,0-0.02,0-0.03,0s-0.02,0-0.03,0
		c-7.02,0-12.72-5.67-12.72-12.66c0-6.99,5.69-12.66,12.72-12.66c0.01,0,0.02,0,0.03,0s0.02,0,0.03,0c7.02,0,12.72,5.67,12.72,12.66
		S132.81,142.91,125.78,142.91z M45.86,54.87c12.73,7.81,23.3,18.66,30.71,31.62c-11.76,13.66-19.24,31.05-20.38,50.15
		c-14.49-3.72-29.68-3.75-44.18-0.08C13.26,105.12,25.85,76.59,45.86,54.87z M11.93,144.25c14.51-3.58,29.7-3.46,44.15,0.35
		c0.65,19.49,7.88,37.32,19.59,51.36c-12.99,7.36-23.87,17.86-31.71,30.5C24.52,204.39,12.54,175.71,11.93,144.25z M136.77,231.91
		c-3.63,12.56-3.99,25.79-1.09,38.47c-33.78-1.54-64.19-15.88-86.42-38.24c7.87-12.59,18.77-23.03,31.75-30.34
		c14.77,14.71,34.94,24.07,57.3,24.95L136.77,231.91z M140.02,216.79l-0.62,2.65c-5.01-0.41-9.9-1.22-14.64-2.41l0.95-1.76
		c4.74-8.8,8.21-18.22,10.34-27.96c1.86,0.24,3.76,0.38,5.69,0.38c0.34,0,0.68-0.02,1.02-0.03
		C143.18,197.45,142.26,207.25,140.02,216.79z M143.73,270.48c-2.84-12.36-2.58-25.25,0.79-37.53c0.15-0.56,0.34-1.12,0.55-1.66
		l1.78-4.63c19.48-1.14,37.21-8.74,51.05-20.68c0.28,0.48,0.59,0.95,0.86,1.44l1.01,1.82c6.63,11.95,16.35,21.88,28.08,28.86
		C205.39,257.86,175.99,270,143.73,270.48z M233.76,232.6c-11.78-6.96-21.54-16.88-28.21-28.85l-0.89-1.59
		c-0.31-0.56-0.67-1.09-0.99-1.64c14.04-14.58,22.91-34.09,23.7-55.65l3.46,0.82c13.27,3.81,27.31,3.99,40.64,0.59
		C270.3,179.93,256.13,210.31,233.76,232.6z"/>
</g>
</svg>
