<?xml version="1.0" encoding="utf-8"?>
<!-- Generator: Adobe Illustrator 24.0.2, SVG Export Plug-In . SVG Version: 6.00 Build 0)  -->
<svg version="1.1" id="Layer_1" xmlns="http://www.w3.org/2000/svg" xmlns:xlink="http://www.w3.org/1999/xlink" x="0px" y="0px"
	 viewBox="0 0 283.46 283.46" style="enable-background:new 0 0 283.46 283.46;" xml:space="preserve">
<style type="text/css">
	.st0{fill-rule:evenodd;clip-rule:evenodd;fill:url(#SVGID_1_);}
</style>
<linearGradient id="SVGID_1_" gradientUnits="userSpaceOnUse" x1="141.7323" y1="283.4646" x2="141.7323" y2="0.0255">
	<stop  offset="0" style="stop-color:#1C93CA"/>
	<stop  offset="0.2012" style="stop-color:#1C8FC6"/>
	<stop  offset="0.3986" style="stop-color:#1C84BA"/>
	<stop  offset="0.5945" style="stop-color:#1D72A7"/>
	<stop  offset="0.7895" style="stop-color:#1E588B"/>
	<stop  offset="0.9823" style="stop-color:#1F3668"/>
	<stop  offset="1" style="stop-color:#1F3364"/>
</linearGradient>
<path class="st0" d="M141.73,0.03C63.45,0.03-0.01,63.48-0.01,141.75s63.46,141.72,141.74,141.72
	c78.28,0,141.75-63.45,141.75-141.72S220.02,0.03,141.73,0.03z M141.97,265.53c-68.31,0-123.69-55.73-123.69-124.48
	c0-68.75,55.38-124.48,123.69-124.48c68.31,0,123.69,55.73,123.69,124.48C265.66,209.8,210.28,265.53,141.97,265.53z M141.73,63.47
	c-43.3,0-78.4,35.04-78.4,78.27s35.1,78.27,78.4,78.27c43.3,0,78.4-35.04,78.4-78.27S185.03,63.47,141.73,63.47z M209.84,149.05
	c-1.54,13.94-7.23,26.61-15.8,36.76l-11.61-11.61l-8.27,8.27l11.61,11.61c-10.16,8.56-22.83,14.21-36.74,15.66v-16.84h-11.73v17.05
	c-14.28-0.94-27.36-6.29-37.91-14.7l12.77-12.77l-8.27-8.27L90.9,187.21c-9.24-10.37-15.39-23.57-17.01-38.16h19.6v-11.69H73.58
	c0.86-15.11,6.58-28.92,15.62-39.86l14.71,14.71l8.27-8.27L97.38,89.15c10.88-9.37,24.72-15.37,39.93-16.37v20.75h11.73V72.99
	c14.82,1.55,28.24,7.86,38.71,17.38l-13.57,13.57l8.27,8.27l13.26-13.26c8.36,10.7,13.64,23.95,14.47,38.41h-17.3v11.69H209.84z
	 M92.09,59.56L57.02,94.63V59.56H92.09z M184.06,143.19c0,22.6-18.32,40.91-40.91,40.91c-22.6,0-40.91-18.32-40.91-40.91
	c0-22.6,18.32-40.91,40.91-40.91C165.74,102.27,184.06,120.59,184.06,143.19z"/>
</svg>
