<?xml version="1.0" encoding="utf-8"?>
<!-- Generator: Adobe Illustrator 24.0.2, SVG Export Plug-In . SVG Version: 6.00 Build 0)  -->
<svg version="1.1" id="Layer_1" xmlns="http://www.w3.org/2000/svg" xmlns:xlink="http://www.w3.org/1999/xlink" x="0px" y="0px"
	 viewBox="0 0 283.46 283.46" style="enable-background:new 0 0 283.46 283.46;" xml:space="preserve">
<style type="text/css">
	.st0{fill:url(#SVGID_1_);}
</style>
<linearGradient id="SVGID_1_" gradientUnits="userSpaceOnUse" x1="141.955" y1="24.9145" x2="141.955" y2="261.2945" gradientTransform="matrix(1 0 0 -1 0 283.4646)">
	<stop  offset="0" style="stop-color:#1C93CA"/>
	<stop  offset="0.2012" style="stop-color:#1C8FC6"/>
	<stop  offset="0.3986" style="stop-color:#1C84BA"/>
	<stop  offset="0.5945" style="stop-color:#1D72A7"/>
	<stop  offset="0.7895" style="stop-color:#1E588B"/>
	<stop  offset="0.9823" style="stop-color:#1F3668"/>
	<stop  offset="1" style="stop-color:#1F3364"/>
</linearGradient>
<path class="st0" d="M22.52,190.81c3.7,9.4,8.58,18.2,14.48,26.2l-11.33,8.34c-6.71-9.11-12.13-19-16.22-29.4L22.52,190.81z
	 M43.63,151.36l-10.51,0.34c0.36,11.38,2.69,22.26,6.65,32.32l9.79-3.85C46.03,171.2,43.96,161.5,43.63,151.36z M44.79,45.01
	l95.19,93.8l-93.87,89.46l7.3,7.28l102.41-96.74L53.64,36.62L44.79,45.01z M21.39,78.39l11.62,7.52
	c4.76-7.35,10.33-14.11,16.58-20.18l-9.61-9.91l-0.14-0.15c-2.05,1.98-4.04,4.03-5.96,6.15c-0.25,0.27-0.5,0.55-0.74,0.83
	c-1.87,2.11-3.68,4.28-5.42,6.51c-0.28,0.37-0.58,0.72-0.86,1.09c-0.78,1.02-1.53,2.07-2.28,3.12c-0.69,0.97-1.37,1.95-2.04,2.94
	c-0.45,0.66-0.93,1.29-1.36,1.96l0.03,0.02L21.39,78.39z M94.74,125.82c-2.17,3.34-3.87,7.01-5.02,10.91l4.36,1.29
	c1.02-3.48,2.54-6.75,4.47-9.73L94.74,125.82z M47.08,124.17c2.37-8.05,5.87-15.61,10.34-22.49l-8.83-5.71
	c-5.01,7.72-8.94,16.2-11.59,25.23L47.08,124.17z M14.5,148.56c0-11.32,1.66-22.26,4.7-32.6l-13.4-3.94
	c-3.46,11.61-5.35,23.87-5.35,36.54c0,1.4,0.02,2.79,0.07,4.19h0.02h0.01l14.06-0.46C14.56,151.05,14.5,149.82,14.5,148.56z
	 M217.73,95.1l-13.93,13.93l6.22,6.22l13.93-13.93L217.73,95.1z M218.03,146h19.7v-8.8h-19.7V146z M88.07,149.92
	c0.16,4.92,1.15,9.63,2.87,13.98l4.23-1.67c-1.53-3.88-2.41-8.07-2.56-12.46L88.07,149.92z M283.46,252.96l-0.16,5.59
	c-38.72,0-73.09-18.62-94.65-47.39c-1.06-1.42-2.09-2.86-3.09-4.33c-6.81-9.99-12.11-21.09-15.61-32.95
	c-3.14-10.63-4.84-21.87-4.84-33.51c0-10.64,1.42-20.94,4.06-30.75c3.64-13.54,9.61-26.12,17.47-37.28c0.93-1.31,1.88-2.6,2.86-3.88
	c21.6-28.14,55.58-46.29,93.8-46.29l0.16,6.84c-34.93,0-66.13,16-86.66,41.07c30.52,8.47,52.92,36.44,52.92,69.65
	c0,33.81-23.21,62.2-54.57,70.1C215.65,236.08,247.58,252.96,283.46,252.96z M192.05,205.66c30.15-6.92,52.65-33.9,52.65-66.16
	c0-31.59-21.58-58.14-50.8-65.72c-7.7,10.25-13.68,21.88-17.51,34.44c0.92-0.08,1.84-0.12,2.77-0.12
	c18.52,0,33.53,15.01,33.53,33.53s-15.01,33.53-33.53,33.53c-0.8,0-1.59-0.04-2.37-0.09C180.3,186.11,185.49,196.41,192.05,205.66z
	 M202.76,172.99l13.93,13.93l6.22-6.22l-13.93-13.93L202.76,172.99z M75.56,113.42l5.9,3.82c2.38-3.67,5.16-7.06,8.29-10.09
	l-4.89-5.05C81.36,105.5,78.23,109.3,75.56,113.42z M67.81,130.28c-1.71,5.8-2.64,11.93-2.64,18.28c0,0.7,0.03,1.4,0.05,2.09
	l7.02-0.23c-0.02-0.62-0.05-1.24-0.05-1.87c0-5.66,0.83-11.13,2.35-16.3L67.81,130.28z M77.8,186.95l5.66-4.17
	c-2.95-4-5.39-8.4-7.24-13.1l-6.54,2.57C71.75,177.53,74.48,182.47,77.8,186.95z"/>
</svg>
