<?xml version="1.0" encoding="utf-8"?>
<!-- Generator: Adobe Illustrator 24.0.2, SVG Export Plug-In . SVG Version: 6.00 Build 0)  -->
<svg version="1.1" id="Layer_1" xmlns="http://www.w3.org/2000/svg" xmlns:xlink="http://www.w3.org/1999/xlink" x="0px" y="0px"
	 viewBox="0 0 283.46 283.46" style="enable-background:new 0 0 283.46 283.46;" xml:space="preserve">
<style type="text/css">
	.st0{fill:url(#SVGID_1_);}
</style>
<linearGradient id="SVGID_1_" gradientUnits="userSpaceOnUse" x1="136.265" y1="1.6146" x2="136.265" y2="283.3146" gradientTransform="matrix(1 0 0 -1 0 283.4646)">
	<stop  offset="0" style="stop-color:#1C93CA"/>
	<stop  offset="0.2012" style="stop-color:#1C8FC6"/>
	<stop  offset="0.3986" style="stop-color:#1C84BA"/>
	<stop  offset="0.5945" style="stop-color:#1D72A7"/>
	<stop  offset="0.7895" style="stop-color:#1E588B"/>
	<stop  offset="0.9823" style="stop-color:#1F3668"/>
	<stop  offset="1" style="stop-color:#1F3364"/>
</linearGradient>
<path class="st0" d="M169.14,0.15c-16.96,0-32.89,6.32-46.77,17.4c-0.19,0-0.38-0.02-0.57-0.02c-13.3,0-25.88,4.44-37.09,12.33
	c-0.59-0.02-1.18-0.06-1.77-0.06C40.57,29.8,6.21,79.58,6.21,141c0,61.41,34.35,111.2,76.73,111.2c0.59,0,1.18-0.05,1.77-0.06
	c11.21,7.89,23.79,12.33,37.09,12.33c0.19,0,0.38-0.02,0.57-0.02c13.87,11.08,29.81,17.4,46.77,17.4
	c53.67,0,97.18-63.06,97.18-140.84C266.32,63.21,222.81,0.15,169.14,0.15z M85.75,240.34c-0.94,0.05-1.87,0.1-2.82,0.1
	c-1.15,0-2.29-0.04-3.43-0.13c-0.97-0.07-1.94-0.18-2.9-0.31c-0.14-0.02-0.29-0.03-0.43-0.05c-2.21-0.32-4.39-0.79-6.54-1.4
	c-31.53-8.98-55.33-49.24-55.33-97.57s23.79-88.59,55.32-97.57c2.15-0.61,4.33-1.08,6.54-1.4c0.14-0.02,0.29-0.03,0.44-0.05
	c0.96-0.13,1.92-0.24,2.89-0.31c1.14-0.08,2.28-0.13,3.43-0.13c0.94,0,1.88,0.05,2.82,0.1c0.83,0.06,1.65,0.13,2.47,0.22
	c11.85,1.31,22.85,6.97,32.26,15.9c1.85,1.76,3.64,3.64,5.36,5.64l0,0c0.86,0.99,1.69,2.02,2.52,3.07c0.01,0.01,0.01,0.02,0.02,0.02
	c0.82,1.06,1.63,2.14,2.42,3.25c12.8,18.07,20.77,43.3,20.77,71.25c0,27.94-7.96,53.18-20.77,71.25c-0.79,1.11-1.59,2.19-2.42,3.25
	c0,0.01-0.01,0.01-0.01,0.02c-0.82,1.05-1.66,2.08-2.51,3.07l-0.01,0.01c-0.86,1-1.73,1.96-2.62,2.9l0,0
	c-0.89,0.94-1.8,1.85-2.73,2.73c-9.41,8.93-20.42,14.6-32.27,15.91C87.4,240.21,86.58,240.29,85.75,240.34z M156.71,171.54
	c1.61-8.18,2.6-16.74,2.87-25.58h12.08c-0.57,12.12-3.18,23.41-7.36,33.17L156.71,171.54z M160.54,186.77
	c-4.01,7.12-8.96,13.05-14.54,17.53c3.47-7.25,6.36-15.13,8.58-23.49L160.54,186.77z M159.61,137.9c-0.17-8.93-1.05-17.6-2.59-25.88
	l7.84-7.84c4.06,9.96,6.53,21.44,6.88,33.72H159.61z M154.98,102.65c-2.26-8.91-5.29-17.27-8.96-24.94
	c5.88,4.74,11.06,11.08,15.18,18.72L154.98,102.65z M121.8,251.41c-6.34,0-12.49-1.15-18.37-3.27
	c12.21-4.89,23.19-14.05,32.15-26.29c25.08-8.95,43.69-41.75,43.69-80.86s-18.61-71.91-43.69-80.86
	c-8.95-12.25-19.94-21.4-32.15-26.29c5.89-2.12,12.03-3.27,18.37-3.27c42.08,0,76.19,49.44,76.19,110.42
	C197.99,201.98,163.88,251.41,121.8,251.41z M203.9,173.92c1.66-8.74,2.7-17.86,2.99-27.26h15.99c-0.65,13.82-3.63,26.71-8.4,37.84
	L203.9,173.92z M210.19,193.21c-5.59,9.93-12.77,17.86-20.95,23.16c5.11-9.59,9.27-20.29,12.27-31.83L210.19,193.21z M206.92,137.46
	c-0.18-9.51-1.09-18.75-2.68-27.61L215.11,99c4.63,11.36,7.45,24.46,7.85,38.47L206.92,137.46L206.92,137.46z M201.96,99.14
	c-3.03-12.18-7.34-23.45-12.7-33.51c8.54,5.54,15.99,13.96,21.69,24.52L201.96,99.14z M169.14,266.96c-9.35,0-18.33-2.19-26.77-6.15
	c13.13-4.72,25.04-13.86,34.97-26.25c30.79-7.79,54.21-46.7,54.21-93.56s-23.42-85.77-54.21-93.56
	c-9.93-12.4-21.85-21.53-34.97-26.25c8.44-3.96,17.42-6.15,26.77-6.15c48,0,86.92,56.4,86.92,125.97
	C256.06,210.56,217.14,266.96,169.14,266.96z M82.93,65.98c-28.59,0-51.76,33.58-51.76,75.01c0,14.45,2.83,27.94,7.71,39.4
	l-0.03,0.03l0.08,0.08c9.13,21.31,25.42,35.5,43.99,35.5c28.59,0,51.76-33.58,51.76-75.01C134.69,99.56,111.52,65.98,82.93,65.98z
	 M121.18,175.3l-7.4-7.4l-5.13,5.13l9.18,9.18c-7.69,13.64-19.11,22.63-32.01,23.81V188.9h-7.26v17.01
	c-12.43-1.74-23.36-10.81-30.75-24.18l8.71-8.71l-5.13-5.13l-6.9,6.9c-3.64-8.67-5.91-18.63-6.41-29.33H48.7v-7.26H38.01
	c0.32-10.84,2.44-20.99,5.97-29.83l7.4,7.4l5.13-5.13l-9.28-9.28c7.39-13.97,18.56-23.51,31.33-25.29V94h7.26V75.95
	c13.23,1.22,24.9,10.68,32.58,24.93l-9.76,9.76l5.13,5.13l7.9-7.9c3.66,8.96,5.86,19.29,6.18,30.34H116.9v7.26h10.91
	C127.29,156.37,124.94,166.52,121.18,175.3z M112.46,140.99c0,23.53-13.22,42.61-29.52,42.61c-16.31,0-29.52-19.08-29.52-42.61
	s13.22-42.61,29.52-42.61C99.24,98.38,112.46,117.46,112.46,140.99z"/>
</svg>
