<?xml version="1.0" encoding="utf-8"?>
<!-- Generator: Adobe Illustrator 24.0.2, SVG Export Plug-In . SVG Version: 6.00 Build 0)  -->
<svg version="1.1" id="Layer_1" xmlns="http://www.w3.org/2000/svg" xmlns:xlink="http://www.w3.org/1999/xlink" x="0px" y="0px"
	 viewBox="0 0 283.46 283.46" style="enable-background:new 0 0 283.46 283.46;" xml:space="preserve">
<style type="text/css">
	.st0{fill-rule:evenodd;clip-rule:evenodd;fill:url(#SVGID_1_);}
</style>
<linearGradient id="SVGID_1_" gradientUnits="userSpaceOnUse" x1="141.73" y1="33.4846" x2="141.73" y2="255.9446" gradientTransform="matrix(1 0 0 -1 0 283.4646)">
	<stop  offset="0" style="stop-color:#1C93CA"/>
	<stop  offset="0.2012" style="stop-color:#1C8FC6"/>
	<stop  offset="0.3986" style="stop-color:#1C84BA"/>
	<stop  offset="0.5945" style="stop-color:#1D72A7"/>
	<stop  offset="0.7895" style="stop-color:#1E588B"/>
	<stop  offset="0.9823" style="stop-color:#1F3668"/>
	<stop  offset="1" style="stop-color:#1F3364"/>
</linearGradient>
<path class="st0" d="M144.47,139.88c0,17.74-14.38,32.11-32.11,32.11s-32.11-14.38-32.11-32.11s14.38-32.11,32.11-32.11
	C130.1,107.77,144.47,122.14,144.47,139.88z M283.46,174.47c0,39.96-32.4,72.36-72.36,72.36c-15.47,0-29.8-4.87-41.57-13.15
	c-16.95,10.41-36.93,16.3-58.29,16.3C49.81,249.98,0,200.18,0,138.75S49.81,27.52,111.25,27.52c31.61,0,60.12,13.2,80.37,34.37
	c11.44-17.73,20.19-30.02,20.19-30.02S283.46,134.51,283.46,174.47z M158.19,223.79c-8.11-8.7-14.12-19.39-17.17-31.28
	c-8.82,4.88-18.97,7.67-29.77,7.67c-33.99,0-61.54-27.51-61.54-61.43c0-33.93,27.55-61.43,61.54-61.43
	c22.55,0,42.24,12.12,52.95,30.18c6.46-11.76,13.43-23.41,19.99-33.92c-17.79-20.27-43.78-33.07-72.76-33.07
	c-53.61,0-97.08,43.74-97.08,97.7s43.46,97.7,97.08,97.7C128.4,235.91,144.32,231.48,158.19,223.79z M138.75,174.47
	c0-14.22,9.25-36.38,21.17-59.02c-1.73-3.67-3.85-7.12-6.32-10.28l-10.4,10.4l-6.49-6.49l10.65-10.65
	c-8.22-7.47-18.75-12.42-30.38-13.64v16.12h-9.2V84.62c-11.93,0.79-22.8,5.49-31.34,12.85l11.61,11.61l-6.49,6.49l-11.55-11.55
	c-7.09,8.59-11.58,19.43-12.26,31.29h15.63v9.18H58c1.27,11.45,6.1,21.81,13.35,29.95l10.21-10.21l6.49,6.49l-10.03,10.03
	c8.28,6.6,18.55,10.8,29.76,11.54v-13.38h9.2v13.22c8.18-0.86,15.8-3.56,22.47-7.68C139,181.17,138.75,177.85,138.75,174.47z
	 M274.53,174.11c0-36.41-62.81-129.95-62.81-129.95s-64.04,93.53-64.04,129.95s28.4,65.93,63.42,65.93S274.53,210.52,274.53,174.11z
	"/>
</svg>
