<?xml version="1.0" encoding="utf-8"?>
<!-- Generator: Adobe Illustrator 24.0.2, SVG Export Plug-In . SVG Version: 6.00 Build 0)  -->
<svg version="1.1" id="Layer_1" xmlns="http://www.w3.org/2000/svg" xmlns:xlink="http://www.w3.org/1999/xlink" x="0px" y="0px"
	 viewBox="0 0 283.46 283.46" style="enable-background:new 0 0 283.46 283.46;" xml:space="preserve">
<style type="text/css">
	.st0{fill-rule:evenodd;clip-rule:evenodd;fill:url(#SVGID_1_);}
	.st1{fill-rule:evenodd;clip-rule:evenodd;fill:url(#SVGID_2_);}
</style>
<g>
	
		<linearGradient id="SVGID_1_" gradientUnits="userSpaceOnUse" x1="141.73" y1="26.9946" x2="141.73" y2="243.1646" gradientTransform="matrix(1 0 0 -1 0 283.4646)">
		<stop  offset="0" style="stop-color:#1C93CA"/>
		<stop  offset="0.2012" style="stop-color:#1C8FC6"/>
		<stop  offset="0.3986" style="stop-color:#1C84BA"/>
		<stop  offset="0.5945" style="stop-color:#1D72A7"/>
		<stop  offset="0.7895" style="stop-color:#1E588B"/>
		<stop  offset="0.9823" style="stop-color:#1F3668"/>
		<stop  offset="1" style="stop-color:#1F3364"/>
	</linearGradient>
	<path class="st0" d="M188.37,40.3c-20.24,0-38.98,6.34-54.4,17.11c-9.61-2.9-19.8-4.5-30.38-4.5C46.38,52.91,0,98.47,0,154.69
		s46.38,101.78,103.6,101.78c27.17,0,51.86-10.3,70.33-27.11c4.71,0.72,9.53,1.09,14.44,1.09c52.52,0,95.09-42.57,95.09-95.08
		S240.89,40.3,188.37,40.3z M103.77,243.59c-49.93,0-90.4-40.03-90.4-89.4s40.47-89.4,90.4-89.4c6.45,0,12.74,0.69,18.81,1.97
		c-9.31,8.93-16.82,19.71-21.9,31.78c-0.02,0-0.04,0-0.05,0c-0.17,0.01-0.35,0.02-0.52,0.03c-3.65,0.22-7.25,0.77-10.74,1.65
		c-0.08,0.02-0.16,0.04-0.24,0.06c-0.8,0.21-1.6,0.43-2.39,0.67c-0.15,0.04-0.3,0.09-0.44,0.14c-0.72,0.23-1.44,0.46-2.16,0.72
		c-0.18,0.07-0.37,0.13-0.55,0.2c-0.69,0.25-1.37,0.51-2.04,0.79c-0.18,0.07-0.36,0.15-0.54,0.23c-0.68,0.29-1.36,0.59-2.02,0.9
		c-0.15,0.07-0.31,0.14-0.46,0.22c-0.7,0.34-1.4,0.69-2.09,1.05c-0.1,0.05-0.19,0.1-0.29,0.15c-0.75,0.4-1.5,0.82-2.23,1.26
		c-0.02,0.01-0.04,0.02-0.06,0.03c-9.26,5.51-16.93,13.58-21.83,23.54c-0.08,0.15-0.15,0.31-0.22,0.46
		c-0.29,0.61-0.58,1.23-0.85,1.85c-0.16,0.36-0.3,0.72-0.45,1.08c-0.18,0.44-0.36,0.88-0.54,1.33c-0.21,0.56-0.41,1.12-0.61,1.69
		c-0.1,0.28-0.2,0.56-0.29,0.85c-0.23,0.71-0.45,1.44-0.66,2.16c-0.04,0.13-0.08,0.25-0.12,0.38c-0.01,0.04-0.02,0.08-0.03,0.13
		c-0.21,0.75-0.39,1.51-0.57,2.28c-0.04,0.18-0.09,0.35-0.12,0.53c-0.08,0.38-0.16,0.75-0.23,1.13c-0.02,0.11-0.04,0.21-0.06,0.32
		c-0.03,0.18-0.07,0.37-0.1,0.55c-0.05,0.3-0.11,0.59-0.16,0.89c-0.04,0.26-0.08,0.53-0.12,0.8c-0.04,0.29-0.08,0.59-0.12,0.89
		c-0.05,0.42-0.11,0.83-0.16,1.25c-0.02,0.16-0.03,0.32-0.05,0.48c-0.04,0.37-0.06,0.73-0.09,1.1c-0.04,0.45-0.07,0.91-0.1,1.36
		c0,0.08-0.01,0.16-0.01,0.23c-0.02,0.41-0.03,0.82-0.04,1.23c-0.01,0.47-0.02,0.94-0.03,1.4c0,0.04,0,0.07,0,0.11
		c0,0.02,0,0.03,0,0.05c0,0,0,0,0,0.01c0,0.42,0.01,0.83,0.02,1.25c0.01,0.45,0.02,0.89,0.04,1.34c0.02,0.49,0.06,0.98,0.09,1.48
		c0.03,0.42,0.06,0.83,0.1,1.25c0.02,0.16,0.02,0.32,0.04,0.48c0.04,0.36,0.09,0.73,0.14,1.09c0.04,0.34,0.08,0.67,0.13,1.01
		c0.04,0.27,0.07,0.54,0.11,0.81c0.03,0.16,0.06,0.32,0.09,0.48c0.04,0.24,0.09,0.49,0.13,0.73c0.03,0.17,0.06,0.33,0.09,0.5
		c0.26,1.34,0.55,2.67,0.91,3.97c0,0,0,0,0,0.01s0.01,0.03,0.01,0.04c0.24,0.89,0.5,1.76,0.78,2.63c0.07,0.21,0.15,0.42,0.22,0.64
		c0.22,0.64,0.44,1.28,0.68,1.91c0.17,0.46,0.37,0.92,0.55,1.37c0.15,0.36,0.29,0.72,0.44,1.07c0.3,0.69,0.62,1.38,0.95,2.05
		c0.05,0.1,0.09,0.2,0.14,0.3c4.9,10,12.59,18.1,21.88,23.63c0.01,0.01,0.02,0.01,0.04,0.02c0.73,0.44,1.48,0.85,2.23,1.26
		c0.09,0.05,0.17,0.09,0.26,0.14c0.69,0.37,1.39,0.72,2.1,1.05c0.15,0.07,0.29,0.14,0.44,0.21c0.67,0.32,1.36,0.62,2.04,0.91
		c0.17,0.07,0.34,0.15,0.51,0.22c0.69,0.28,1.38,0.55,2.08,0.81c0.17,0.06,0.33,0.13,0.5,0.19c0.74,0.26,1.48,0.51,2.24,0.74
		c0.12,0.04,0.25,0.08,0.37,0.12c0.84,0.25,1.68,0.49,2.53,0.71c0.03,0.01,0.07,0.02,0.1,0.03c3.42,0.86,6.93,1.42,10.51,1.65
		c0.17,0.01,0.34,0.02,0.51,0.03c0.64,0.04,1.28,0.06,1.93,0.07c0.4,0.01,0.79,0.02,1.19,0.02c0.41,0,0.81-0.01,1.22-0.01
		c0.64-0.01,1.27-0.03,1.9-0.06c0.17-0.01,0.35-0.02,0.52-0.03c3.65-0.22,7.25-0.77,10.74-1.65c0.08-0.02,0.16-0.04,0.24-0.06
		c0.8-0.2,1.59-0.43,2.38-0.66c0.15-0.05,0.3-0.09,0.45-0.14c0.72-0.22,1.44-0.46,2.15-0.71c0.19-0.07,0.37-0.13,0.55-0.2
		c0.63-0.23,1.25-0.47,1.87-0.72c9.44,8.33,20.54,14.81,32.75,18.89C143.08,236.86,124.22,243.59,103.77,243.59z M113.23,202.85
		c-1.43,0.28-2.87,0.47-4.3,0.62v-12.05h-8.57v12.19c-0.69-0.05-1.38-0.08-2.06-0.16c-0.16-0.02-0.32-0.03-0.48-0.05
		c-0.68-0.08-1.35-0.2-2.03-0.31l3.19-11.58l-8.27-2.2l-3.23,11.74c-1.28-0.44-2.55-0.91-3.79-1.45l6.63-11.22l-7.39-4.22
		l-6.76,11.42c-1.21-0.78-2.37-1.63-3.5-2.52l9.31-9.15L75.95,178l-9.48,9.31c-0.28-0.31-0.56-0.62-0.84-0.94
		c-0.4-0.47-0.81-0.94-1.2-1.42c-0.3-0.37-0.58-0.76-0.87-1.14l11.4-6.43l-4.25-7.28l-11.62,6.56c-0.17-0.33-0.34-0.66-0.5-0.99
		c-0.27-0.56-0.53-1.12-0.78-1.7c-0.23-0.51-0.44-1.04-0.64-1.56c-0.02-0.06-0.05-0.13-0.07-0.19l13.79-3.59l-2.19-8.12l-13.96,3.63
		c-0.1-0.48-0.21-0.95-0.29-1.42c-0.05-0.27-0.08-0.55-0.13-0.82c-0.1-0.65-0.17-1.31-0.24-1.96h14.26v-8.4H53.86
		c0.1-1.5,0.24-3,0.48-4.51l13.83,3.68l2.23-8.1l-14.05-3.73c0.6-1.76,1.32-3.45,2.09-5.1l12.9,7.37l4.29-7.26l-12.97-7.41
		c0.83-1.19,1.71-2.34,2.64-3.45l10.64,10.45l6.04-5.94l-10.7-10.52c1.19-1.01,2.41-1.97,3.69-2.86l7.57,12.96l7.41-4.18
		l-7.61-13.03c1.71-0.81,3.48-1.48,5.28-2.09l3.83,14.21l2.88-0.75c-0.35,2.36-0.59,4.75-0.77,7.17
		c-11.03,4.33-18.83,14.9-18.83,27.28c0,16.23,13.39,29.38,29.9,29.38c0.88,0,1.73-0.08,2.59-0.16c1.21,1.98,2.51,3.91,3.87,5.79
		l-1.05,0.27L113.23,202.85z M95.93,105.75c0.71-0.11,1.44-0.17,2.16-0.25c-0.42,1.28-0.82,2.57-1.19,3.87L95.93,105.75z
		 M188.38,223.1c-48.67,0-88.13-39.33-88.13-87.84s39.46-87.84,88.13-87.84s88.13,39.33,88.13,87.84S237.05,223.1,188.38,223.1z"/>
	
		<linearGradient id="SVGID_2_" gradientUnits="userSpaceOnUse" x1="188.38" y1="65.3546" x2="188.38" y2="231.0546" gradientTransform="matrix(1 0 0 -1 0 283.4646)">
		<stop  offset="0" style="stop-color:#1C93CA"/>
		<stop  offset="0.2012" style="stop-color:#1C8FC6"/>
		<stop  offset="0.3986" style="stop-color:#1C84BA"/>
		<stop  offset="0.5945" style="stop-color:#1D72A7"/>
		<stop  offset="0.7895" style="stop-color:#1E588B"/>
		<stop  offset="0.9823" style="stop-color:#1F3668"/>
		<stop  offset="1" style="stop-color:#1F3364"/>
	</linearGradient>
	<path class="st1" d="M188.38,52.41c-45.91,0-83.12,37.09-83.12,82.85s37.21,82.85,83.12,82.85s83.12-37.09,83.12-82.85
		S234.28,52.41,188.38,52.41z M264.36,142.6c-1.36-17.05-5.43-33.35-11.78-48.49c7.67,11.87,12.14,25.98,12.14,41.15
		C264.72,137.73,264.6,140.18,264.36,142.6z M147.94,121.69l15.2-14.95c1.52,1.92,2.97,3.9,4.31,5.97l-18.95,10.7l6.74,11.54
		l18.54-10.47c0.85,1.98,1.63,4,2.31,6.07l-19.36,5.04l3.46,12.87l19.01-4.95c0.35,2.28,0.56,4.55,0.7,6.82H160v13.31h19.55
		c-0.27,2.41-0.65,4.8-1.14,7.15l-19.14-5.09l-3.53,12.85l18.86,5.02c-0.65,1.63-1.35,3.24-2.11,4.82
		c-0.03,0.06-0.06,0.12-0.09,0.19l-16.42-9.39l-6.8,11.51l16.4,9.38c-0.08,0.12-0.16,0.24-0.24,0.35c-0.61,0.84-1.26,1.65-1.9,2.47
		c-0.58,0.74-1.15,1.48-1.75,2.2c-0.11,0.13-0.23,0.25-0.34,0.38l-13.41-13.19l-4.54,4.46c-2.76-2.01-5.38-4.2-7.84-6.55
		c8.78-8.44,14.26-20.18,14.26-33.22c0-21.24-14.5-39.03-34.27-44.6c0.98-3.11,2.17-6.12,3.53-9.05l4.48,1.19l4.3-15.63
		c1.49-1.93,3.08-3.79,4.75-5.57c1.51,0.64,3.01,1.32,4.48,2.06l-11.17,18.9l11.7,6.69l10.9-18.45c1.88,1.4,3.67,2.91,5.42,4.47
		l-15.57,15.31L147.94,121.69z M172.6,209.72c3.8-4.77,7.16-9.93,9.91-15.53c0.12-0.24,0.23-0.48,0.35-0.72
		c0.47-0.98,0.93-1.96,1.36-2.96c0.25-0.56,0.48-1.13,0.71-1.7c0.29-0.71,0.58-1.41,0.86-2.13c0.34-0.88,0.65-1.77,0.96-2.66
		c0.16-0.45,0.32-0.9,0.47-1.35c0.37-1.13,0.71-2.26,1.03-3.41c0.06-0.21,0.13-0.41,0.19-0.62c0.02-0.07,0.03-0.14,0.05-0.21
		c0.32-1.19,0.62-2.39,0.89-3.59c0.07-0.29,0.14-0.57,0.2-0.86c0.13-0.6,0.25-1.19,0.36-1.79c0.03-0.17,0.06-0.33,0.09-0.5
		c0.05-0.29,0.1-0.57,0.16-0.86c0.09-0.48,0.18-0.95,0.26-1.43c0.07-0.42,0.13-0.84,0.19-1.26c0.07-0.46,0.12-0.93,0.18-1.4
		c0.09-0.66,0.18-1.33,0.25-1.99c0.03-0.25,0.05-0.5,0.07-0.75c0.06-0.58,0.1-1.16,0.15-1.74c0.06-0.72,0.12-1.44,0.15-2.15
		c0.01-0.12,0.01-0.24,0.02-0.37c0.03-0.65,0.05-1.3,0.07-1.95c0.02-0.75,0.04-1.49,0.04-2.23c0-0.06,0-0.11,0-0.17
		c0-0.02,0-0.05,0-0.07v-0.01c0-0.66-0.02-1.32-0.03-1.98c-0.02-0.71-0.03-1.42-0.07-2.13c-0.04-0.78-0.09-1.56-0.15-2.34
		c-0.05-0.66-0.1-1.33-0.17-1.99c-0.02-0.25-0.04-0.5-0.06-0.75c-0.06-0.58-0.15-1.16-0.22-1.74c-0.07-0.54-0.13-1.07-0.21-1.61
		c-0.06-0.43-0.11-0.85-0.18-1.28c-0.04-0.27-0.1-0.54-0.15-0.81c-0.06-0.37-0.14-0.74-0.2-1.12c-0.05-0.26-0.09-0.53-0.14-0.79
		c-0.41-2.12-0.88-4.22-1.43-6.29c0-0.01,0-0.01,0-0.02c-0.01-0.03-0.02-0.06-0.03-0.09c-0.38-1.39-0.79-2.77-1.23-4.14
		c-0.12-0.36-0.25-0.7-0.36-1.06c-0.34-1-0.68-2-1.06-2.99c-0.28-0.74-0.59-1.47-0.88-2.2c-0.23-0.56-0.45-1.12-0.69-1.67
		c-0.48-1.11-0.99-2.2-1.51-3.28c-0.07-0.15-0.14-0.31-0.22-0.46c-7.75-15.85-19.95-28.7-34.66-37.46
		c-0.02-0.01-0.03-0.02-0.05-0.03c-1.16-0.69-2.34-1.36-3.54-2c-0.14-0.07-0.27-0.15-0.41-0.22c-0.91-0.48-1.84-0.94-2.77-1.39
		c13-10.22,29.39-16.33,47.23-16.33c7.32,0,14.4,1.05,21.1,2.97c21.64,24.81,34.79,57.06,34.79,92.41c0,13.03-1.84,25.62-5.19,37.59
		c-13.49,11.95-31.24,19.23-50.71,19.23C182.97,211.35,177.69,210.78,172.6,209.72z"/>
</g>
</svg>
