<?xml version="1.0" encoding="utf-8"?>
<!-- Generator: Adobe Illustrator 24.0.2, SVG Export Plug-In . SVG Version: 6.00 Build 0)  -->
<svg version="1.1" id="Layer_1" xmlns="http://www.w3.org/2000/svg" xmlns:xlink="http://www.w3.org/1999/xlink" x="0px" y="0px"
	 viewBox="0 0 283.46 283.46" style="enable-background:new 0 0 283.46 283.46;" xml:space="preserve">
<style type="text/css">
	.st0{fill:url(#SVGID_1_);}
	.st1{fill:url(#SVGID_2_);}
	.st2{fill:url(#SVGID_3_);}
	.st3{fill:url(#SVGID_4_);}
	.st4{fill:url(#SVGID_5_);}
	.st5{fill:url(#SVGID_6_);}
	.st6{fill:url(#SVGID_7_);}
	.st7{fill:url(#SVGID_8_);}
	.st8{fill:url(#SVGID_9_);}
	.st9{fill:url(#SVGID_10_);}
</style>
<g>
	
		<linearGradient id="SVGID_1_" gradientUnits="userSpaceOnUse" x1="140.93" y1="58.1646" x2="140.93" y2="230.7406" gradientTransform="matrix(1 0 0 -1 0 283.4646)">
		<stop  offset="0" style="stop-color:#1C93CA"/>
		<stop  offset="0.2012" style="stop-color:#1C8FC6"/>
		<stop  offset="0.3986" style="stop-color:#1C84BA"/>
		<stop  offset="0.5945" style="stop-color:#1D72A7"/>
		<stop  offset="0.7895" style="stop-color:#1E588B"/>
		<stop  offset="0.9823" style="stop-color:#1F3668"/>
		<stop  offset="1" style="stop-color:#1F3364"/>
	</linearGradient>
	<path class="st0" d="M278.64,142.64c0.11-2.16,0.66-15.01-1.13-23.42c-1.81-8.47-10.82-21.87-19.53-34.83l-2.37-3.53
		c-9.29-13.88-37.08-35.31-38.56-36.4l-15.81-8.08l-18.02,5.04l-0.8,0.45c-0.47,0.44-11.61,10.95-11.42,19.81
		c0.2,9.72,13.14,16.39,20.19,16.39c0.05,0,0.1,0,0.14,0c3.41-0.05,5.13-0.9,6.39-1.52c1.24-0.61,1.8-0.89,4.17-0.11
		c1.33,0.44,2.64,0.51,3.8,0.58c3.86,0.23,7.85,0.46,9.64,23.43c0.42,5.41-1.06,16.88-1.07,17l-0.05,0.42l0.12,0.4
		c0.77,2.5,1.38,5.16,1.59,6.85c-1.75-0.71-5.43-1.93-11.43-2.58c-3.86-0.41-14.7,1.14-18.65,1.74c-1.43-2.35-5.12-7.7-11.7-12.93
		c-2.59-2.06-6.23-5.3-9.4-8.19c-13.62-29.74-43.58-50.44-78.43-50.44C38.64,52.72,0,91.35,0,139.01s38.64,86.29,86.3,86.29
		c20.94,0,40.13-7.46,55.07-19.86c9.82-5.34,21.37-12.03,30.51-18.51c3.32-2.36,12.31-2.05,20.24-1.77
		c3.04,0.11,6.12,0.22,8.92,0.19c11.58-0.07,22.06-0.41,42.47-3.89c3.7-0.64,12.35-2.12,16.88-1.91l2.28,0.11
		c9.23,0.48,13.35,0.53,14.95-0.35c3.94-2.16,4.24-6.87,4.24-13.29C281.87,156.38,279.14,144.66,278.64,142.64z M11.14,138.59
		c0-41.86,33.72-75.79,75.31-75.79s75.31,33.93,75.31,75.79s-33.72,75.79-75.31,75.79S11.14,180.44,11.14,138.59z M275.84,175.89
		c-1.38,0.51-9.21,0.11-12.97-0.08l-2.3-0.12c-4.34-0.21-11.39,0.88-17.71,1.96c-20.12,3.44-30.44,3.76-41.84,3.84
		c-2.76,0.05-5.78-0.08-8.77-0.19c-9.36-0.33-18.21-0.64-22.6,2.48c-5.38,3.81-11.62,7.67-17.84,11.32
		c12.94-15.09,20.8-34.65,20.8-56.08c0-9.75-1.69-19.08-4.67-27.82c1.36,1.18,2.68,2.3,3.8,3.19c7.91,6.29,11.34,12.83,11.37,12.9
		l0.64,1.25l1.38-0.22c4.13-0.66,15.57-2.27,18.94-1.92c7.7,0.83,10.95,2.46,10.92,2.51c1.74,1.34,3,0.85,3.59,0.43
		c0.78-0.54,2.59-1.79-0.45-11.8c0.27-2.19,1.45-12.11,1.04-17.38c-1.9-24.44-6.7-26.6-13.26-26.99c-1.01-0.06-1.97-0.11-2.81-0.39
		c-3.59-1.19-5.2-0.61-7.09,0.32c-1.08,0.54-2.19,1.09-4.73,1.12c-0.04,0-0.08,0-0.12,0c-6.09,0-16.16-6.04-16.3-12.61
		c-0.12-5.71,6.78-13.61,9.86-16.59l16.1-4.5l14.16,7.2c0.28,0.22,28.46,21.95,37.4,35.3l2.38,3.54
		c8.51,12.66,17.3,25.75,18.96,33.48c1.82,8.49,1.05,22.54,1.04,22.68l-0.02,0.29l0.07,0.28c0.03,0.13,3.18,12.85,3.18,22.73
		C278.01,171.77,277.66,174.88,275.84,175.89z M216.7,127.7l0.37-1.8c0.24-0.02,0.41,0.03,0.48,0.06L216.7,127.7z"/>
	
		<linearGradient id="SVGID_2_" gradientUnits="userSpaceOnUse" x1="240.7013" y1="58.1696" x2="240.7013" y2="230.7456" gradientTransform="matrix(1 0 0 -1 0 283.4646)">
		<stop  offset="0" style="stop-color:#1C93CA"/>
		<stop  offset="0.2012" style="stop-color:#1C8FC6"/>
		<stop  offset="0.3986" style="stop-color:#1C84BA"/>
		<stop  offset="0.5945" style="stop-color:#1D72A7"/>
		<stop  offset="0.7895" style="stop-color:#1E588B"/>
		<stop  offset="0.9823" style="stop-color:#1F3668"/>
		<stop  offset="1" style="stop-color:#1F3364"/>
	</linearGradient>
	<path class="st1" d="M239.95,125.43c-3.58,4.95,13.28-3.78-2.16-23.2C234.29,97.84,243.53,120.48,239.95,125.43z"/>
	
		<linearGradient id="SVGID_3_" gradientUnits="userSpaceOnUse" x1="262.9816" y1="58.1696" x2="262.9816" y2="230.7456" gradientTransform="matrix(1 0 0 -1 0 283.4646)">
		<stop  offset="0" style="stop-color:#1C93CA"/>
		<stop  offset="0.2012" style="stop-color:#1C8FC6"/>
		<stop  offset="0.3986" style="stop-color:#1C84BA"/>
		<stop  offset="0.5945" style="stop-color:#1D72A7"/>
		<stop  offset="0.7895" style="stop-color:#1E588B"/>
		<stop  offset="0.9823" style="stop-color:#1F3668"/>
		<stop  offset="1" style="stop-color:#1F3364"/>
	</linearGradient>
	<path class="st2" d="M257.24,169.88c1.32-8.98,11.89-6.77,11.89-6.77C253.43,153.86,257.24,169.88,257.24,169.88z"/>
	
		<linearGradient id="SVGID_4_" gradientUnits="userSpaceOnUse" x1="86.3" y1="58.1696" x2="86.3" y2="230.7456" gradientTransform="matrix(1 0 0 -1 0 283.4646)">
		<stop  offset="0" style="stop-color:#1C93CA"/>
		<stop  offset="0.2012" style="stop-color:#1C8FC6"/>
		<stop  offset="0.3986" style="stop-color:#1C84BA"/>
		<stop  offset="0.5945" style="stop-color:#1D72A7"/>
		<stop  offset="0.7895" style="stop-color:#1E588B"/>
		<stop  offset="0.9823" style="stop-color:#1F3668"/>
		<stop  offset="1" style="stop-color:#1F3364"/>
	</linearGradient>
	<path class="st3" d="M86.3,91.35c-26.36,0-47.74,21.34-47.74,47.66s21.37,47.66,47.74,47.66c26.36,0,47.74-21.34,47.74-47.66
		C134.04,112.69,112.67,91.35,86.3,91.35z M127.77,143.46c-0.94,8.49-4.4,16.2-9.62,22.38l-7.07-7.07l-5.03,5.03l7.07,7.07
		c-6.19,5.21-13.9,8.65-22.37,9.54v-10.26h-7.14v10.38c-8.7-0.58-16.66-3.83-23.08-8.95l7.78-7.78l-5.03-5.03l-7.92,7.92
		c-5.63-6.31-9.37-14.35-10.36-23.23h11.93v-7.12H44.81c0.53-9.2,4.01-17.61,9.51-24.27l8.96,8.96l5.03-5.03l-9-9
		c6.63-5.71,15.05-9.36,24.31-9.97v12.63h7.14v-12.5c9.02,0.94,17.19,4.78,23.57,10.58l-8.26,8.27l5.03,5.03l8.07-8.07
		c5.09,6.52,8.3,14.58,8.81,23.39h-10.53v7.12h10.32V143.46z"/>
	
		<linearGradient id="SVGID_5_" gradientUnits="userSpaceOnUse" x1="87.16" y1="58.1696" x2="87.16" y2="230.7456" gradientTransform="matrix(1 0 0 -1 0 283.4646)">
		<stop  offset="0" style="stop-color:#1C93CA"/>
		<stop  offset="0.2012" style="stop-color:#1C8FC6"/>
		<stop  offset="0.3986" style="stop-color:#1C84BA"/>
		<stop  offset="0.5945" style="stop-color:#1D72A7"/>
		<stop  offset="0.7895" style="stop-color:#1E588B"/>
		<stop  offset="0.9823" style="stop-color:#1F3668"/>
		<stop  offset="1" style="stop-color:#1F3364"/>
	</linearGradient>
	<path class="st4" d="M87.16,114.97c-13.76,0-24.91,11.15-24.91,24.91s11.15,24.91,24.91,24.91s24.91-11.15,24.91-24.91
		C112.08,126.13,100.92,114.97,87.16,114.97z"/>
	
		<linearGradient id="SVGID_6_" gradientUnits="userSpaceOnUse" x1="230.2153" y1="58.1696" x2="230.2153" y2="230.7456" gradientTransform="matrix(1 0 0 -1 0 283.4646)">
		<stop  offset="0" style="stop-color:#1C93CA"/>
		<stop  offset="0.2012" style="stop-color:#1C8FC6"/>
		<stop  offset="0.3986" style="stop-color:#1C84BA"/>
		<stop  offset="0.5945" style="stop-color:#1D72A7"/>
		<stop  offset="0.7895" style="stop-color:#1E588B"/>
		<stop  offset="0.9823" style="stop-color:#1F3668"/>
		<stop  offset="1" style="stop-color:#1F3364"/>
	</linearGradient>
	<path class="st5" d="M223.74,130.26c-0.6,0.04,12.97,4.83,12.97,4.83S235.2,129.43,223.74,130.26z"/>
	
		<linearGradient id="SVGID_7_" gradientUnits="userSpaceOnUse" x1="194.55" y1="58.1696" x2="194.55" y2="230.7456" gradientTransform="matrix(1 0 0 -1 0 283.4646)">
		<stop  offset="0" style="stop-color:#1C93CA"/>
		<stop  offset="0.2012" style="stop-color:#1C8FC6"/>
		<stop  offset="0.3986" style="stop-color:#1C84BA"/>
		<stop  offset="0.5945" style="stop-color:#1D72A7"/>
		<stop  offset="0.7895" style="stop-color:#1E588B"/>
		<stop  offset="0.9823" style="stop-color:#1F3668"/>
		<stop  offset="1" style="stop-color:#1F3364"/>
	</linearGradient>
	<polygon class="st6" points="190.23,64.54 189.15,59.71 192.39,58.74 196.71,60.67 192.39,55.84 186.98,58.74 188.06,66.47 
		195.63,70.34 202.12,71.3 197.79,68.4 	"/>
	
		<linearGradient id="SVGID_8_" gradientUnits="userSpaceOnUse" x1="205.318" y1="58.1696" x2="205.318" y2="230.7456" gradientTransform="matrix(1 0 0 -1 0 283.4646)">
		<stop  offset="0" style="stop-color:#1C93CA"/>
		<stop  offset="0.2012" style="stop-color:#1C8FC6"/>
		<stop  offset="0.3986" style="stop-color:#1C84BA"/>
		<stop  offset="0.5945" style="stop-color:#1D72A7"/>
		<stop  offset="0.7895" style="stop-color:#1E588B"/>
		<stop  offset="0.9823" style="stop-color:#1F3668"/>
		<stop  offset="1" style="stop-color:#1F3364"/>
	</linearGradient>
	<path class="st7" d="M201.04,168.92c-6.79,5.32-22.96,4.43-17.29,5.8c5.66,1.37,12.46,3.19,20.54-3.87s23.78-6.77,23.78-6.77
		S207.83,163.6,201.04,168.92z"/>
	
		<linearGradient id="SVGID_9_" gradientUnits="userSpaceOnUse" x1="227.6926" y1="58.1696" x2="227.6926" y2="230.7456" gradientTransform="matrix(1 0 0 -1 0 283.4646)">
		<stop  offset="0" style="stop-color:#1C93CA"/>
		<stop  offset="0.2012" style="stop-color:#1C8FC6"/>
		<stop  offset="0.3986" style="stop-color:#1C84BA"/>
		<stop  offset="0.5945" style="stop-color:#1D72A7"/>
		<stop  offset="0.7895" style="stop-color:#1E588B"/>
		<stop  offset="0.9823" style="stop-color:#1F3668"/>
		<stop  offset="1" style="stop-color:#1F3364"/>
	</linearGradient>
	<path class="st8" d="M222.65,131.22l9.73,11.6C232.38,142.82,235.6,136.96,222.65,131.22z"/>
	
		<linearGradient id="SVGID_10_" gradientUnits="userSpaceOnUse" x1="197.3995" y1="58.1696" x2="197.3995" y2="230.7456" gradientTransform="matrix(1 0 0 -1 0 283.4646)">
		<stop  offset="0" style="stop-color:#1C93CA"/>
		<stop  offset="0.2012" style="stop-color:#1C8FC6"/>
		<stop  offset="0.3986" style="stop-color:#1C84BA"/>
		<stop  offset="0.5945" style="stop-color:#1D72A7"/>
		<stop  offset="0.7895" style="stop-color:#1E588B"/>
		<stop  offset="0.9823" style="stop-color:#1F3668"/>
		<stop  offset="1" style="stop-color:#1F3364"/>
	</linearGradient>
	<path class="st9" d="M200.09,149.29c6.12-0.25,13.65-1.96,22.57-6.47c0,0-31.25,5.6-42.16,0.97c0,0,6.25,5.68,18.45,5.54
		c-3.48,2.4-15.61,10.32-24.94,10.89C163.17,160.88,203.1,164.21,200.09,149.29z"/>
</g>
</svg>
