<?xml version="1.0" encoding="utf-8"?>
<!-- Generator: Adobe Illustrator 24.0.2, SVG Export Plug-In . SVG Version: 6.00 Build 0)  -->
<svg version="1.1" id="Layer_1" xmlns="http://www.w3.org/2000/svg" xmlns:xlink="http://www.w3.org/1999/xlink" x="0px" y="0px"
	 viewBox="0 0 283.46 283.46" style="enable-background:new 0 0 283.46 283.46;" xml:space="preserve">
<style type="text/css">
	.st0{fill:url(#SVGID_1_);}
</style>
<linearGradient id="SVGID_1_" gradientUnits="userSpaceOnUse" x1="141.73" y1="4.544957e-03" x2="141.73" y2="283.4646" gradientTransform="matrix(1 0 0 -1 0 283.4646)">
	<stop  offset="0" style="stop-color:#1C93CA"/>
	<stop  offset="0.2012" style="stop-color:#1C8FC6"/>
	<stop  offset="0.3986" style="stop-color:#1C84BA"/>
	<stop  offset="0.5945" style="stop-color:#1D72A7"/>
	<stop  offset="0.7895" style="stop-color:#1E588B"/>
	<stop  offset="0.9823" style="stop-color:#1F3668"/>
	<stop  offset="1" style="stop-color:#1F3364"/>
</linearGradient>
<path class="st0" d="M100.52,100.52c-50.19,48.14-78.51,114.11-78.51,182.91l-22.02,0.03c0-0.01,0-0.01,0-0.02
	C-0.01,127.95,127.95,0,283.44,0c0.01,0,0.02,0,0.02,0l-0.02,27.42C215.08,27.42,149.37,53.68,100.52,100.52z M55.55,283.45v0.01
	l17.7-0.02c0-55.32,22.77-108.36,63.13-147.07c39.27-37.67,92.1-58.78,147.07-58.78l0.02-22.04c-0.01,0-0.01,0-0.02,0
	C158.42,55.55,55.55,158.43,55.55,283.45z M108.35,283.45v0.01l13.6-0.02c0-42.5,17.5-83.26,48.5-112.99
	c30.17-28.94,70.76-45.16,113-45.16l0.01-16.94h-0.01C187.39,108.35,108.35,187.4,108.35,283.45z"/>
</svg>
